<svg id="Capa_1" xmlns="http://www.w3.org/2000/svg" viewBox="0 0 751.16 126.74"><defs><style>.cls-2{fill:#ff8300}.cls-4{fill:#002f86}.cls-6{fill:#8cc6e7}</style></defs><path class="cls-2" d="M151.73 29.44h595.55a2.39 2.39 0 1 1 0 4.78H151.73a2.39 2.39 0 1 1 0-4.78z"/><path fill="#ffa437" d="M313.71.11l-32.75 31.82 32.75 31.81 32.74-31.81L313.71.11z"/><path class="cls-6" d="M211.37.11l-32.75 31.82 32.75 31.81 32.74-31.81L211.37.11z"/><path fill="#fd6" d="M416.4.11l-32.75 31.82 32.75 31.81 32.75-31.81L416.4.11z"/><path fill="#47d7b0" d="M518.15.11L485.4 31.93l32.75 31.81 32.75-31.81L518.15.11z"/><path fill="#38006c" d="M615.16 0l-32.75 31.81 32.75 31.82 32.75-31.82L615.16 0z"/><path class="cls-2" d="M748.27 97.16H2.39A2.39 2.39 0 0 1 0 94.77c0-1.32 1.07-2.38 2.39-2.38h745.88a2.39 2.39 0 0 1 2.39 2.39c0 1.32-1.07 2.38-2.39 2.38z"/><path class="cls-4" d="M574.91 63.06l32.74 31.81-32.74 31.81-32.75-31.81 32.75-31.81z"/><path fill="#e18300" d="M470.96 63.06l32.74 31.81-32.74 31.81-32.75-31.81 32.75-31.81z"/><path class="cls-6" d="M366.3 63.06l32.74 31.81-32.74 31.81-32.75-31.81 32.75-31.81z"/><path fill="#ff5e00" d="M678.26 63.06l32.75 31.81-32.75 31.81-32.75-31.81 32.75-31.81z"/><rect class="cls-2" x="746.16" y="29.58" width="5" height="66.73" rx="2.31" ry="2.31"/><path class="cls-4" d="M266.75 63.11l-32.74 31.82 32.74 31.81 32.75-31.81-32.75-31.82z"/></svg>